<svg xmlns="http://www.w3.org/2000/svg"  viewBox="-75 -38 650 228"><path d="M423.72 32.318h-50.74c-27.468 0-49.736 22.266-49.736 49.735 0 27.465 22.268 49.732 49.735 49.732h50.74c27.468 0 49.735-22.267 49.735-49.732 0-27.469-22.267-49.735-49.734-49.735zm-3.015 78.863h-44.712c-16.089 0-29.13-13.041-29.13-29.128 0-16.09 13.041-29.13 29.13-29.13h44.712c16.089 0 29.13 13.04 29.13 29.13 0 16.087-13.041 29.128-29.13 29.128zm53.837 9.772c-3.846 0-6.95 3.111-6.95 6.933 0 3.858 3.104 6.971 6.95 6.971 3.826 0 6.91-3.113 6.91-6.971 0-3.822-3.084-6.933-6.91-6.933zm0 13.066c-3.375 0-6.097-2.73-6.097-6.133a6.09 6.09 0 016.097-6.094c3.354 0 6.076 2.73 6.076 6.094 0 3.403-2.722 6.133-6.076 6.133z" clip-rule="evenodd" fill-rule="evenodd"/><path d="M478.095 126.068c0-.655-.29-1.346-.87-1.675-.58-.345-1.233-.382-1.886-.382h-3.374v7.77h.942v-3.586h1.741l2.214 3.585h1.124l-2.34-3.585c1.38-.036 2.449-.6 2.449-2.127zm-3.737 1.393h-1.45v-2.75h2.214c.959 0 2.014.148 2.014 1.35 0 1.584-1.688 1.4-2.778 1.4zm-185.53-36.626c16.087 0 29.13-13.044 29.13-29.13 0-16.087-13.043-29.382-29.13-29.382l-67.571-.005c-27.467 0-49.735 22.266-49.735 49.735 0 27.465 22.268 49.732 49.735 49.732h91.936v-20.604h-88.922c-16.088 0-29.13-13.041-29.13-29.128 0-16.09 13.042-29.13 29.13-29.13l61.542.005c4.71 0 8.526 4.07 8.526 8.777a8.526 8.526 0 01-8.526 8.526h-76.866v20.614l79.881-.01zM79.582 111.166c-20.796 0-37.656-15.854-37.656-36.65 0-20.797 16.86-37.405 37.656-37.405l82.644-.024V17.322H75.563c-31.587 0-57.194 25.607-57.194 57.194 0 31.586 25.607 57.194 57.194 57.194h86.663V69.493H90.384V90.09h47.726v21.1l-58.528-.024zm349.67-51.352l-4.082-.008c2.271 1.565 5.55 4.302 8.281 8.12l-13.9-.009a30.323 30.323 0 00-7.633-8.103l-4.08-.008c2.27 1.565 5.55 4.302 8.28 8.12H400.61V59.82h-3.893v8.105H381.21c2.728-3.817 6.007-6.554 8.28-8.12l-4.082.01a30.289 30.289 0 00-7.633 8.102l-13.899.008c2.731-3.817 6.009-6.554 8.281-8.12l-4.083.01c-7.096 5.166-12.086 13.54-12.086 22.99 0 8.712 4.296 16.507 10.216 21.47l4.015.001c-2.297-2.204-4.41-4.384-6.171-6.705l13.635-.005a29.062 29.062 0 005.852 6.708l4.015.002c-2.286-2.194-4.39-4.365-6.147-6.736h15.314v6.741h3.893v-6.74h15.314c-1.76 2.37-3.86 4.541-6.148 6.735l4.013-.002a29.07 29.07 0 005.855-6.708l13.633.005c-1.76 2.32-3.873 4.501-6.169 6.705l4.015-.002c5.92-4.962 10.216-12.757 10.216-21.47 0-9.45-4.99-17.823-12.087-22.99zm-67.719 33.863a22.22 22.22 0 01-2.589-8.927h14.449a27.198 27.198 0 002.233 8.923l-14.093.004zm11.86-12.819h-14.434c.28-3.364 1.238-6.373 2.558-9.022h14.16c-1.252 2.821-2.052 5.825-2.284 9.022zm23.324 12.79l-17.837-.007c-1.42-2.663-2.353-5.52-2.604-8.891h20.44v8.898zm0-12.79H376.29a24.15 24.15 0 012.584-9.022h17.842v9.022zm3.893-9.022h17.842a24.13 24.13 0 012.582 9.022H400.61v-9.022zm17.837 21.805l-17.837.007V84.75h20.44c-.25 3.37-1.184 6.228-2.603 8.89zm17.364-21.805c1.317 2.65 2.276 5.658 2.557 9.022h-14.433c-.233-3.197-1.036-6.2-2.285-9.022h14.16zM421.7 93.673a27.198 27.198 0 002.234-8.923h14.447a22.189 22.189 0 01-2.589 8.927l-14.092-.004z" clip-rule="evenodd" fill-rule="evenodd"/></svg>