<svg xmlns="http://www.w3.org/2000/svg" viewBox="-33.16032 -11.705025 287.38944 70.23015"><path d="M199.755 21.1433l-7.8187 13.85h7.0462l7.8187-13.85-7.0462-.0002m20.46.0002h-3.6925L205.26 26.772l-1.0112 1.7825 5.5662 6.4412h7.5925c.115 0 .2113-.115.1-.2374l-7.2737-8.3338s9.9287-4.9625 10.05-5.0375c.1212-.0663.105-.2513-.075-.2513M191.845 33.1333l-10.6537-.0002c-1.4013-.0075-2.0538-.8325-1.3363-2.1037l4.5238-8.0163H195.07s2.1612-1.5412 2.2512-1.6162c.0888-.0738.1163-.25-.0775-.25h-16.1212c-1.5163 0-2.8725.3625-4.005 2.245-.0313.0512-3.82 6.7762-3.8638 6.845-1.2625 2.235-.1987 3.5925 1.1263 4.2575.7537.3787 1.4938.5062 2.3925.5062.0887 0 12.8862-.0075 12.8862 0 0 .0063 1.5238-1.0912 2.2325-1.6.2063-.1487.0575-.2662-.0462-.2662m-74.11-11.9911l-7.82 13.85h6.34s5.7825-10.245 5.9413-10.5375c.6787-1.25 1.1887-1.4475 2.5124-1.4475l3.9563-.0002 2.1738-1.5562c.2862-.2063.1875-.3088.0262-.3088h-13.1263" fill="#51bbed"/><path d="M98.155 31.1232c.2325-.4175.425-.78.5775-1.0712 1.1387-2.185.5887-3.17-1.3613-3.4725 0 0-8.63-1.215-8.9924-1.27-.3988-.0625-.62-.285-.4363-.6125.0838-.1487.695-1.2625.695-1.2625.25-.4562.685-.4325 1.1625-.4325h9.2612s2.1188-1.5188 2.2525-1.62c.1363-.1013.0275-.245-.0625-.245H86.86c-1.9837 0-3.8563.785-4.9512 2.7187-.0426.0775-.24.3975-.4426.7538-.2637.4662-.5462.9987-.6237 1.1375-1.2312 2.1862-.105 3.0137 1.44 3.235.275.04 8.435 1.2 8.8875 1.2625.67.0962.6775.47.4688.8537-.1463.2713-.6788 1.2125-.8026 1.4213-.2437.415-.4424.6025-.9637.6037h-11.78s-2.1612 1.545-2.27 1.6312c-.1087.0862-.0288.235.0725.235H92.51c2.2825 0 3.6763-.6275 5.23-3.1825.0525-.0838.2813-.4475.415-.6875m-29.73-8.1062h4.9662c.1288 0 .2913.2063.1863.3938l-1.4187 2.5125c-.3363.6062-.735.8575-1.6963 1.0137l-4.615.6463 2.5775-4.57m-8.44 11.9875l13.9863.0001s2.1712-1.5612 2.275-1.6425c.085-.065.075-.2262-.0863-.2262H64.3663c-.8438 0-1.31-.6-.8188-1.4738L64.69 29.626l10.0625-1.41c1.455-.1675 3.2887-.6125 4.8037-3.18l.61-1.075c1.09-2.1088.0638-2.82-1.465-2.82H65.035c-1.4563 0-2.8725.4725-4.1513 2.7337-1.1537 2.04-2.7812 4.9275-3.8437 6.8075-1.4 2.4775.405 4.3125 2.9388 4.3125"/><path d="M108.355 23.0733c.0625.075-.0263.215-.0263.215l-6.6075 11.7037h6.3362l7.82-13.85h-12.685s-2.1737 1.57-2.27 1.635c-.0713.0475-.085.2337.115.2337l7.1275.0002s.1363.0001.19.0662M62.055 21.4492c.2863-.2062.1887-.3087.0262-.3087H41.1425s-2.1738 1.5688-2.27 1.6338c-.0738.0474-.085.2337.1137.2337h7.885s.1288-.005.1863.0575c.0425.0512.0288.105.0013.15L40.4113 34.993h7.0462s5.78-10.2413 5.9388-10.535c.6787-1.25 1.2175-1.45 2.5387-1.45l3.9363-.0001 2.1725-1.5588"/><g fill="#51bbed"><path d="M162.225 33.1333h-5.2125c-.5825 0-.4037-.4225-.3013-.6.045-.0788 1.5863-2.8075 1.5863-2.8075.5012-.8875.87-1.35 2.345-1.5925l4.7737-.6575-3.1912 5.6575m5.1812-9.175l-.835 1.4687-10.8637 1.5238c-1.2475.17-2.715.47-3.9638 2.0475-.18.225-.3525.495-.52.7737-.0912.15-.5925 1.01-1.0125 1.7938-.4187.7825-1.6675 3.435 1.615 3.435h16.35l5.7738-10.2275c1.5962-2.8263.8375-3.6263-1.4487-3.6263h-.9563l.0037-.0025H156.67s-2.1787 1.5813-2.2687 1.6438c-.09.0612-.0563.225.085.225h13.1387c.0262 0 .1325.0087.1787.065.0638.0737-.0262.2162-.0262.2162l-.37.6638"/><path d="M137.965 23.0133h6.2875c.6662 0 .8425.175.4475.91-.0925.1725-.3587.6475-.5237.9412-.7926 1.4013-1.37 1.6875-3.11 2.0238l-4.1388.8512-.8463 1.49 4.9163 5.7713h8.01c.1375 0 .1762-.145.0975-.2238-.08-.0775-6.1488-6.3-6.1488-6.3l2.4725-.5025c3.205-.5938 4.46-.8575 5.74-3.0288.1088-.185.265-.4574.3513-.6112 1.105-1.975.4462-3.1862-1.4938-3.1862h-17.6c-.3237 0-.5537.1825-.7487.5275l-7.525 13.3262h7.0487l6.765-11.9875"/></g><path d="M59.926 43.5483a.4179.4179 0 01-.09.1275.4138.4138 0 01-.1338.085.4415.4415 0 01-.1587.0274h-2.3388v-.7662h2.3325c.055 0 .11.0087.16.0288a.4302.4302 0 01.2288.2112.3872.3872 0 01.0362.14.382.382 0 01-.0362.1462m.3062-.8074a.9941.9941 0 00-.3062-.2038.9045.9045 0 00-.37-.0762h-2.6312c-.08 0-.15.0274-.1988.08a.2708.2708 0 00-.0837.1987v2.36c0 .0762.0287.145.0825.1987a.2848.2848 0 00.2.08.2792.2792 0 00.1962-.08.272.272 0 00.0838-.1987v-.7488h2.3325a.9615.9615 0 00.3737-.0725.9774.9774 0 00.3113-.1987c.0875-.0788.1612-.1788.2187-.2975a.8815.8815 0 00.085-.3762.8645.8645 0 00-.0825-.3688c-.055-.115-.1262-.215-.2112-.2963m4.0327.8046c-.03.0562-.0587.0987-.0862.1275a.4829.4829 0 01-.14.0874c-.0488.02-.0976.0276-.155.0276h-2.345v-.7675h2.3337a.4054.4054 0 01.1625.0312.416.416 0 01.1313.0788c.0437.0425.0737.0787.0987.1312.0187.0388.0287.0863.0287.1425 0 .0575-.0088.1037-.0287.1412m.15-.9312a.9208.9208 0 00-.2575-.1162 1.063 1.063 0 00-.2875-.0388h-2.6113c-.0787 0-.1487.0275-.2.0813a.2722.2722 0 00-.0825.1974v2.36a.271.271 0 00.0825.1988.288.288 0 00.2.08c.075 0 .1463-.03.1976-.08a.2738.2738 0 00.0824-.1988v-.7475h2.0388l.6663.8938c.0525.0862.1387.1325.2412.1325.0625 0 .1187-.0163.1625-.0488.045-.03.08-.075.095-.1187a.2685.2685 0 00.0212-.1525c-.0063-.055-.0312-.1075-.0625-.14l-.4712-.6337a.9298.9298 0 00.3275-.2038c.0963-.0875.1713-.1875.2225-.3038a.8942.8942 0 00.0788-.37.8928.8928 0 00-.1238-.4587 1.0153 1.0153 0 00-.32-.3325m1.58.5993a.6356.6356 0 01.2087-.1413c.0788-.035.1626-.05.2538-.05h2.2363c.08 0 .1474-.03.2-.0837a.2756.2756 0 00.08-.1988c0-.0775-.0276-.145-.0788-.195a.2707.2707 0 00-.2013-.085h-2.2362a1.183 1.183 0 00-.4725.0963c-.1487.0662-.2787.1537-.3875.2612-.11.11-.1988.24-.2625.3862-.065.1463-.0963.3063-.0963.4763v.4775c0 .1688.0313.3275.0963.4725.0612.1437.1487.2725.26.3875.1087.11.2387.2.3875.2637.1487.0638.3088.0963.475.0963h2.2363c.0774 0 .1462-.0275.2-.0813.0524-.0524.08-.1224.08-.1987 0-.0788-.0276-.1475-.0788-.1975a.2764.2764 0 00-.2013-.0838h-2.2362a.5905.5905 0 01-.25-.0524.7133.7133 0 01-.2125-.14.674.674 0 01-.1425-.2088.5584.5584 0 01-.0512-.2137h2.8925c.0787 0 .1475-.0276.1975-.08.055-.0513.0825-.12.0825-.1988a.2804.2804 0 00-.0813-.2012.283.283 0 00-.1988-.0813h-2.8925a.6147.6147 0 01.0488-.2137.698.698 0 01.145-.2126m4.15-.1099a.3511.3511 0 01.0963-.0675c.0337-.0163.0737-.0238.1187-.0238h2.525a.2798.2798 0 00.2813-.2813.2807.2807 0 00-.0813-.1987.2717.2717 0 00-.2-.0825H70.36a.8223.8223 0 00-.3412.0712.8705.8705 0 00-.275.1863.8363.8363 0 00-.185.2787.8495.8495 0 00-.0688.3413.831.831 0 00.0688.3375.8434.8434 0 00.1874.2787.9138.9138 0 00.2775.185.843.843 0 00.3363.0688h1.9375c.045 0 .0825.0075.1225.025a.2889.2889 0 01.095.0638.3077.3077 0 01.065.1012c.0163.035.0225.0762.0225.12 0 .0437-.0063.0838-.0225.1175a.3002.3002 0 01-.0675.1.2923.2923 0 01-.0988.0663.3019.3019 0 01-.1162.0237h-2.525c-.0787 0-.1475.0287-.1975.0812a.2717.2717 0 00-.0825.1988c0 .0775.0275.1462.0813.2a.2756.2756 0 00.1987.0812h2.525c.1225 0 .2375-.0225.3375-.0675a.883.883 0 00.2788-.1875.9097.9097 0 00.1837-.2775.8517.8517 0 00.0688-.34.85.85 0 00-.0688-.3387.857.857 0 00-.185-.2775.8953.8953 0 00-.2775-.1863.8736.8736 0 00-.3375-.0662H70.36c-.085 0-.1512-.0275-.2062-.0875a.3657.3657 0 01-.1013-.2225c.0001-.0437.01-.0825.0275-.125a.327.327 0 01.065-.0962m4.28.11a.6794.6794 0 01.21-.1425.6444.6444 0 01.255-.05h2.235c.08 0 .1487-.0288.2-.0838.0537-.055.0825-.1225.0825-.1987 0-.0763-.03-.145-.0813-.195-.0524-.055-.1212-.0838-.2012-.0838H74.89c-.1663 0-.3262.0313-.4738.0963-.1487.0662-.28.1537-.385.26-.1112.11-.2.24-.265.3874a1.1915 1.1915 0 00-.0974.475v.4776a1.19 1.19 0 00.0974.4737 1.311 1.311 0 00.2626.3875c.1074.1113.2374.1988.3862.2637.1475.0638.3075.0963.475.0963h2.235c.0788 0 .1475-.0288.1975-.0813a.272.272 0 00.085-.2.2685.2685 0 00-.0813-.1962.2707.2707 0 00-.2012-.085H74.89a.6059.6059 0 01-.2525-.0525.7153.7153 0 01-.2112-.14.6698.6698 0 01-.1426-.2112c-.03-.0638-.0462-.135-.0512-.2113h2.8925c.08 0 .1475-.0275.1963-.0788a.2665.2665 0 00.0862-.2c0-.08-.0287-.1474-.0837-.2a.2709.2709 0 00-.1988-.0825h-2.8925a.6299.6299 0 01.05-.2137.692.692 0 01.1425-.2113m7.11-.76c-.0762 0-.1475.0275-.1988.08-.0537.0513-.0837.1225-.0837.2013v2.0213c-.0001.0337-.0138.0474-.0288.0562-.025.02-.05.03-.0762.03-.0163 0-.0338-.005-.0525-.0012a.0713.0713 0 01-.0262-.02L79.25 42.677a.597.597 0 00-.2362-.185.6983.6983 0 00-.2726-.055c-.0762 0-.1524.0012-.2287.0375a.6765.6765 0 00-.2112.115.697.697 0 00-.1563.1862c-.0425.0726-.0675.1563-.0737.2513l-.005 2.0825c0 .075.0274.1438.0812.2a.2806.2806 0 00.2.0813.291.291 0 00.2025-.0825.2839.2839 0 00.0788-.1988v-2.0312c0-.025.0087-.0363.0224-.045a.1525.1525 0 01.09-.03.152.152 0 01.0475.0086.0577.0577 0 01.025.02l1.82 2.145c.0413.05.0763.0863.115.1163.035.025.075.0463.1125.0625a.649.649 0 00.2788.0625c.08 0 .1575-.015.2362-.0437a.7477.7477 0 00.2075-.1213.6843.6843 0 00.1525-.1875c.0413-.0737.0688-.1574.0788-.2612v-2.0587a.2784.2784 0 00-.0813-.2c-.0524-.0538-.1237-.0813-.1987-.0813m4.05-.0012H82.28c-.0762 0-.1437.0275-.2013.0825A.2738.2738 0 0082 42.742c0 .08.0275.1487.08.1988a.2749.2749 0 00.2.0837h1.3438v2.075c0 .08.0274.1475.0824.2013.0513.0524.1226.08.1976.08a.2777.2777 0 00.1987-.0813.2766.2766 0 00.0825-.2v-2.075h1.4c.0775 0 .1475-.0288.1988-.0813.055-.0537.0812-.1212.0812-.2012 0-.075-.0262-.1412-.0825-.2a.2842.2842 0 00-.1975-.0788m1.12.7501a.6513.6513 0 01.21-.1425.6444.6444 0 01.255-.05h2.235a.2756.2756 0 00.2012-.0838c.0525-.0562.08-.1225.08-.1987 0-.0763-.0287-.145-.0787-.1938-.05-.055-.1225-.085-.2025-.085H87.17c-.1675 0-.3262.0313-.4738.0963-.15.0662-.28.1537-.3862.26a1.2543 1.2543 0 00-.265.3874c-.0638.1463-.0963.3063-.0963.475v.4776c0 .1662.0326.3262.0963.475.065.1437.1525.2737.2625.3862.1075.11.2375.1988.3862.2637.15.0638.31.0963.4763.0963h2.235a.2745.2745 0 00.2-.0825.2767.2767 0 00.0813-.1988.2746.2746 0 00-.08-.1974.2764.2764 0 00-.2013-.0838H87.17c-.09 0-.1725-.0163-.2512-.0525a.6905.6905 0 01-.2126-.14.678.678 0 01-.1437-.2087.5942.5942 0 01-.05-.2138h2.8925c.0775 0 .1475-.0275.1988-.0788a.2796.2796 0 00.0824-.2.2737.2737 0 00-.0824-.2.2758.2758 0 00-.1988-.0825h-2.8925c.005-.0774.02-.1474.0488-.2137a.6887.6887 0 01.1437-.2112m7.07.9399a.6482.6482 0 01-.0512.2538c-.0375.0813-.0838.15-.145.21a.6208.6208 0 01-.2075.1425c-.0775.035-.1575.0512-.2475.0512h-2.2175v-1.795h2.2087a.62.62 0 01.2537.0538.7236.7236 0 01.2113.14c.0612.0587.1062.1275.1437.21a.6152.6152 0 01.0513.2487v.485m.2037-1.3374a1.22 1.22 0 00-.3862-.2638c-.1462-.065-.3075-.0975-.4775-.0975h-2.4912a.273.273 0 00-.195.08.2768.2768 0 00-.085.2v2.3575c0 .0788.03.1475.0812.1963a.2692.2692 0 00.1988.085h2.4912c.1663 0 .325-.0325.4738-.0975a1.2567 1.2567 0 00.3874-.26c.11-.1075.1988-.2388.2638-.3863.065-.1475.0975-.3075.0975-.4762v-.4788c0-.165-.0325-.3237-.0975-.4738a1.2938 1.2938 0 00-.2612-.385m6.0162.5875a.3389.3389 0 01-.085.0938.3728.3728 0 01-.1237.0625.444.444 0 01-.1363.0225h-2.2487v-.565h2.2324a.557.557 0 01.15.0225.4007.4007 0 01.1263.0638.2695.2695 0 01.085.0912c.0175.03.0262.0663.0262.1075a.1932.1932 0 01-.0262.1013m-.0001 1.2c-.0263.0587-.07.1087-.1338.1475-.0687.0425-.1362.0612-.2075.0612h-2.2512v-.665h2.2512c.0488 0 .095.01.1438.03a.4032.4032 0 01.1175.0738.4046.4046 0 01.0812.11.2859.2859 0 01.0263.1212c0 .0425-.007.0825-.0275.1213m.59-1.305a.7466.7466 0 00-.0825-.3413.8022.8022 0 00-.1563-.22 1.087 1.087 0 00-.2075-.1562.9396.9396 0 00-.2437-.095 1.0976 1.0976 0 00-.26-.03h-2.5125a.2764.2764 0 00-.2.0812.2808.2808 0 00-.0825.2v2.3563c0 .0775.0287.145.0825.2a.2806.2806 0 00.2.0812h2.525a.9473.9473 0 00.3575-.0687 1.0102 1.0102 0 00.295-.1888.9011.9011 0 00.2062-.2825.8188.8188 0 00.0787-.355.8342.8342 0 00-.1075-.4112.9606.9606 0 00-.14-.1913.7888.7888 0 00.1713-.2387.8007.8007 0 00.0763-.34m3.7501-.835a.28.28 0 00-.2813.2787v.5863c0 .085-.0187.17-.0512.2487-.0362.08-.0825.1488-.145.2088a.674.674 0 01-.2112.1412.629.629 0 01-.2513.0525h-1.0888a.648.648 0 01-.2537-.0512.691.691 0 01-.2062-.1425.7393.7393 0 01-.1438-.2138.6292.6292 0 01-.0512-.2525v-.5775a.2722.2722 0 00-.0825-.1975.2786.2786 0 00-.1987-.08c-.0775 0-.1488.0288-.2.08a.2749.2749 0 00-.0826.1975v.5775c0 .1663.0338.3275.0988.4775.065.1462.1537.2762.2624.3875.1113.11.24.1963.3838.26.1475.065.3088.0975.4813.0975h.2687v.5575c0 .0812.03.15.0825.2.0525.0537.1212.0812.1988.0812.075 0 .1425-.0275.1987-.0812.055-.0538.0825-.1225.0825-.2v-.5575h.25c.1688 0 .3288-.0325.4775-.0975a1.2487 1.2487 0 00.3825-.26c.1125-.1112.2-.2425.2625-.3875a1.1831 1.1831 0 00.0987-.4775v-.5775c0-.075-.0287-.1437-.085-.2a.277.277 0 00-.1962-.0788m5.12 2.77l-.0001-3.775c0-.3174.0787-.3974.405-.3974h4.5725l.002-1.1526h-5.5188c-1.1425 0-1.7675.4063-1.7675 1.835 0 0-.0137.8313-.0137 1.6188 0 .7862.0137 1.6262.0137 1.6262 0 1.4163.6225 1.8263 1.7675 1.8263h5.6863V45.642h-4.7388c-.3287 0-.4075-.0825-.4075-.4113m11.9694-2.6114h-3.695v-2.71h-2.3275v6.9062h2.3275V43.723h3.695v3.0925h2.3275v-6.9063h-2.3275v2.7113m16.33 2.9378c-.0412.0974-.0888.1087-.2425.1087-.1525 0-.2-.0112-.2412-.1087l-2.235-5.65-8.3613.0025c-1.1413 0-1.765.405-1.765 1.835 0 0-.015.8312-.015 1.6187 0 .785.0138 1.63.0138 1.63 0 1.4163.6212 1.8225 1.7662 1.8225l5.8688.0001v-1.1737h-4.92c-.33 0-.4088-.0825-.4088-.4113V43.736h4.8863v-1.14h-4.8863l-.0001-1.1363c0-.3175.0787-.3975.4062-.3975h5.2525c.72 1.735 2.005 4.7238 2.12 4.9825.1588.3575.44.7713 1.0463.7713h2.1712c.6038 0 .81-.4075.97-.765.1588-.36 2.5963-6.1425 2.5963-6.1425h-1.7713l-2.25 5.6475m19.5389-.3127c0 .3237-.0787.4087-.3987.41h-2.9739c-.3225-.0002-.3975-.0863-.3975-.41l-.002-3.7975c0-.315.0775-.3963.4012-.3975h2.9714c.3212 0 .4012.0825.4012.3975v3.7975m.54-5.3438s-1.3776-.0063-2.4313-.0063c-1.0525 0-2.4213.0063-2.4213.0063-1.1412 0-1.7662.4037-1.7662 1.835 0 0-.0137.8313-.0137 1.6175 0 .7863.0137 1.6413.0137 1.6413 0 1.415.6225 1.8262 1.7662 1.8262h4.8525c1.1438 0 1.7663-.4112 1.7663-1.8262 0 0 .0137-.855.0137-1.6413 0-.7862-.0137-1.6175-.0137-1.6175 0-1.4312-.625-1.835-1.7663-1.835m5.2584.0088h-2.3175v6.91l7.165-.0037v-1.1663h-4.8475v-5.74m5.09 1.8369s-.0138.83-.0138 1.6176c0 .7862.001 1.6262.001 1.6262 0 1.4175.6238 1.8225 1.7675 1.8225l5.87-.0025v-1.1587h-4.9212c-.3288 0-.4075-.0826-.4075-.4113v-1.5025h4.865V42.589h-4.866v-1.13c0-.3163.0788-.3975.4063-.3975l7.6774-.005v5.755h2.3163v-5.755h2.6587v-1.145H169.94c-1.1413 0-1.7663.4037-1.7663 1.835"/><path d="M147.685 43.7702h1.0413c.7737 0 1.495-.2425 1.5474-1.2962.05-.2813.0138-.9775.0138-.9775 0-1.1438-.5888-1.565-1.4725-1.565h-6.8088v6.885h2.2925v-5.7562h3.3975c.21 0 .2675.0612.2762.185.01.1462.0164.4387.0164.6937 0 .2925 0 .5162-.015.6338-.0137.1137-.1288.1862-.2813.1862l-2.7387-.0001v1.0537l3.3837 3.0075h3.1888s-3.8463-2.9387-3.8788-2.9625c-.0713-.0512-.03-.0862.0362-.0862"/><g fill="#51bbed"><path d="M107.925 7.8613l.0275-.0275h27.055l-2.1425-.7088-24.6363-.71c-.22-.0062-.8524-.05-1.125-.17-.315-.14-.5662-.4875-.5712-.4925L102.825.7275h5.0125s.57.0288.7762.07c.1726.0363.7126.2038.7126.2038l9.4062 4.3525 6.955.3125L110.0363.3188S109.32.1075 109.0225.065c-.3287-.0462-.9137-.065-.9137-.065l-6.9763.0038 2.0975 7.725c-5.0375 3.995-12.9837 4.0462-12.3412 4.0462L67.685 12.7788c1.1925-1.2913 1.7213-1.7513 2.5375-2.3975.605-.4775 2.1-1.395 2.8263-1.7325.1562-.0738.28-.1275.3325-.1438.1262-.0375.4912-.0688.4912-.0688l2.5962-.2262.3438-.4188h-2.9238s-.4912.0176-.6612.0438c-.185.0263-.385.07-.5625.1238-7.5925 2.2825-12.2637 5.6712-12.2637 5.6712l32.825-.7688c.0974 0 9.775-.225 14.695-5"/><path d="M42.155 17.3483h.0787c1.2975 0 76.8-1.7963 77.025-1.8038l.2975-.5175c-17.7112.12-74.375.025-78.4587.025-.3225 0-.6125-.0001-.7425-.0025-1.8413-.0263-2.8613-.795-2.8737-.8037-.0063-.0038-.7826-.6113-2.455-1.8825-.5988-.4563-1.2276-.9388-1.6976-1.1388L34.78 8.1957l-2.2837 1.205-2.875 2.4638 2.2912.1625c.51.05 1.61.1513 3.1387 1.4088 1.6338 1.3412 3.9025 3.1512 3.9063 3.1537.3237.225 1.0762.7625 3.1962.7588m-20.8167-2.847c-5.7275.165-10.5787 3.6087-12.8313 8.4775h1.0388c2.63-3.6125 6.8425-6.0138 11.6538-6.1525 5.0625-.1463 10.075 2.385 12.8887 6.1575h.9275c-2.4075-5.075-7.7037-8.655-13.6775-8.4825"/><path d="M20.42 12.1532l.05-.0112c.1775-.0375.3525-.0763.5325-.1162h.085l3.5825-.6763 2.8988-1.4025c3.9687-1.9537 13.2937-6.425 19.8962-8.5425l.0813-.09H45.605c-7.94 2.48-22.5375 8.235-24.1163 8.745C.9637 14.2932.0512 22.917 0 22.9532l1.1937.0063c.0888-.0375 1.3388-7.0188 19.2325-10.8063H20.42"/></g><path d="M185.525 41.0832c.2288 0 .455-.0074.455-.265 0-.2112-.1762-.26-.36-.26h-.3412v.525h.2462m-.2462.8313h-.1875v-1.515h.5825c.3412 0 .4925.1475.4925.4187 0 .2688-.1763.3888-.38.4238l.4512.6725h-.2188l-.4262-.6725h-.3137zm-.8175-.7575c0 .6275.4712 1.125 1.1062 1.125s1.1062-.4975 1.1062-1.125-.4712-1.1238-1.1062-1.1238-1.1062.4963-1.1062 1.1238m2.4175 0c0 .7375-.5713 1.3113-1.3113 1.3113-.74 0-1.3113-.5738-1.3113-1.3113 0-.7362.5713-1.3113 1.3113-1.3113.74 0 1.3113.575 1.3113 1.3113"/><path d="M219.715 33.8633c.2288 0 .455-.0076.455-.265 0-.2113-.1762-.26-.36-.26h-.3412v.525h.2462m-.2462.8312h-.1875v-1.515h.5812c.3425 0 .4938.1475.4938.4188 0 .2687-.1763.3887-.38.4237l.4512.6725h-.2188l-.4262-.6725h-.3137zm-.8175-.7575c0 .6275.4712 1.125 1.1062 1.125s1.1062-.4975 1.1062-1.125-.4712-1.1238-1.1062-1.1238-1.1062.4963-1.1062 1.1238m2.4175 0c0 .7375-.5713 1.3113-1.3113 1.3113-.74 0-1.3113-.5738-1.3113-1.3113 0-.7362.5713-1.3113 1.3113-1.3113.74 0 1.3113.575 1.3113 1.3113" fill="#51bbed"/></svg>