<svg height="48" viewBox="0 0 17 48"  xmlns="http://www.w3.org/2000/svg"><path d="m13.4575 16.9268h-1.1353a3.8394 3.8394 0 0 0 -7.6444 0h-1.1353a2.6032 2.6032 0 0 0 -2.6 2.6v8.9232a2.6032 2.6032 0 0 0 2.6 2.6h9.915a2.6032 2.6032 0 0 0 2.6-2.6v-8.9231a2.6032 2.6032 0 0 0 -2.6-2.6001zm-4.9575-2.2768a2.658 2.658 0 0 1 2.6221 2.2764h-5.2442a2.658 2.658 0 0 1 2.6221-2.2764zm6.3574 13.8a1.4014 1.4014 0 0 1 -1.4 1.4h-9.9149a1.4014 1.4014 0 0 1 -1.4-1.4v-8.9231a1.4014 1.4014 0 0 1 1.4-1.4h9.915a1.4014 1.4014 0 0 1 1.4 1.4z"></path></svg>